<?xml version="1.0" standalone="no"?>
<!DOCTYPE svg PUBLIC "-//W3C//DTD SVG 20010904//EN"
 "http://www.w3.org/TR/2001/REC-SVG-20010904/DTD/svg10.dtd">
<svg version="1.0" xmlns="http://www.w3.org/2000/svg"
 width="400.000000pt" height="400.000000pt" viewBox="0 0 400.000000 400.000000"
 preserveAspectRatio="xMidYMid meet">
<metadata>
Created by potrace 1.14, written by Peter Selinger 2001-2017
</metadata>
<g transform="translate(0.000000,400.000000) scale(0.100000,-0.100000)"
fill="#000000" stroke="none">
<path d="M1310 3869 c-19 -5 -70 -10 -112 -12 -59 -3 -89 -10 -128 -30 -27
-14 -50 -22 -50 -17 0 12 -42 0 -65 -20 -11 -10 -35 -25 -53 -34 -18 -10 -45
-37 -60 -61 -20 -34 -33 -45 -61 -50 -34 -6 -101 -64 -101 -86 0 -6 -11 -25
-24 -42 -27 -36 -126 -226 -126 -242 0 -6 -10 -28 -22 -50 -29 -54 -31 -141
-4 -161 19 -14 19 -14 -2 -37 -18 -19 -19 -26 -9 -37 10 -10 9 -12 -6 -7 -11
4 -17 1 -17 -8 0 -8 -10 -31 -21 -52 -19 -34 -21 -48 -16 -138 9 -159 75 -337
194 -522 40 -63 93 -183 93 -212 0 -11 5 -32 12 -48 6 -15 11 -31 10 -35 -1
-4 5 -25 13 -47 8 -23 14 -45 15 -49 1 -14 73 -132 81 -132 4 0 32 -37 63 -82
30 -46 84 -114 121 -151 63 -66 67 -69 107 -65 l42 3 38 -64 c20 -35 42 -68
49 -72 18 -11 2 -39 -22 -39 -13 0 -52 -9 -88 -20 -73 -22 -244 -66 -334 -85
-86 -19 -146 -60 -182 -125 -26 -47 -40 -60 -98 -90 -54 -28 -73 -44 -93 -79
-24 -43 -24 -44 -9 -124 14 -73 14 -84 -2 -133 -16 -51 -16 -57 1 -109 16 -53
25 -179 29 -413 l2 -93 385 3 385 3 69 43 c66 42 70 43 135 39 36 -3 93 -10
126 -17 33 -6 89 -10 125 -7 56 4 68 9 92 36 30 33 34 54 18 95 -11 31 -7 31
45 6 61 -29 101 -26 137 12 49 52 57 77 49 139 -2 15 -80 59 -104 59 -24 0
-47 23 -35 35 2 3 51 21 109 41 57 20 108 40 113 45 17 15 42 10 79 -16 32
-21 44 -23 89 -18 29 3 76 16 103 28 109 49 154 64 220 75 39 7 97 19 130 27
33 8 87 21 119 29 33 8 114 16 180 18 67 3 172 8 235 12 78 5 112 4 108 -3 -4
-6 -55 -14 -114 -17 -291 -18 -403 -35 -481 -75 -23 -12 -48 -21 -56 -21 -27
0 -90 -34 -135 -72 -24 -21 -49 -38 -56 -38 -30 0 -64 -41 -71 -85 -5 -39 -3
-50 20 -80 35 -46 74 -53 155 -25 34 11 99 25 143 31 45 5 111 17 147 25 49
12 92 14 166 9 196 -12 299 -25 322 -40 12 -8 32 -36 44 -61 11 -26 29 -56 40
-67 10 -11 22 -36 25 -55 4 -19 22 -52 42 -74 l34 -38 194 0 194 0 0 553 0
552 -37 40 c-47 50 -83 102 -83 119 0 7 -13 22 -30 34 -17 13 -43 52 -61 90
-37 77 -76 118 -128 132 -21 5 -93 16 -162 25 -68 8 -138 19 -155 24 -18 5
-72 16 -120 25 -49 9 -114 22 -144 28 -30 7 -107 13 -170 13 l-115 1 -2 106
c0 59 -4 111 -7 116 -3 6 -5 21 -5 33 1 13 -2 45 -6 71 -6 39 -4 51 14 74 13
17 21 41 21 63 0 20 0 72 0 116 -1 44 -5 140 -10 214 -9 120 -13 141 -41 198
-17 34 -49 79 -71 98 -42 39 -55 67 -83 185 -9 41 -25 82 -35 90 -16 15 -17
29 -8 99 3 30 -4 71 -12 66 -5 -3 -10 1 -10 11 0 26 -41 157 -47 151 -11 -12
-156 141 -189 200 -22 38 -58 82 -92 110 -31 27 -68 58 -82 71 -14 12 -33 22
-42 22 -10 0 -18 4 -18 9 0 13 -55 33 -102 36 -56 4 -73 8 -89 22 -8 6 -18 12
-24 13 -22 5 -42 12 -87 32 -42 19 -60 20 -160 15 -89 -4 -118 -2 -133 9 -21
16 -109 17 -165 3z"/>
</g>
</svg>
